<?xml version="1.0" encoding="UTF-8" standalone="no"?>
<!-- Created with Inkscape (http://www.inkscape.org/) -->

<svg
   width="200"
   height="200"
   viewBox="0 0 200 200"
   version="1.1"
   id="svg4886"
   xml:space="preserve"
   inkscape:version="1.2.1 (9c6d41e410, 2022-07-14)"
   sodipodi:docname="grabIcon.svg"
   xmlns:inkscape="http://www.inkscape.org/namespaces/inkscape"
   xmlns:sodipodi="http://sodipodi.sourceforge.net/DTD/sodipodi-0.dtd"
   xmlns="http://www.w3.org/2000/svg"
   xmlns:svg="http://www.w3.org/2000/svg"><sodipodi:namedview
     id="namedview4888"
     pagecolor="#ffffff"
     bordercolor="#000000"
     borderopacity="0.25"
     inkscape:showpageshadow="2"
     inkscape:pageopacity="0.0"
     inkscape:pagecheckerboard="0"
     inkscape:deskcolor="#d1d1d1"
     inkscape:document-units="mm"
     showgrid="false"
     inkscape:zoom="2.9825758"
     inkscape:cx="118.35408"
     inkscape:cy="138.13564"
     inkscape:window-width="960"
     inkscape:window-height="1017"
     inkscape:window-x="-8"
     inkscape:window-y="-8"
     inkscape:window-maximized="0"
     inkscape:current-layer="layer1" /><defs
     id="defs4883" /><g
     inkscape:label="Réteg 1"
     inkscape:groupmode="layer"
     id="layer1"><circle
       style="fill:#ff0000;fill-opacity:1;stroke:none;stroke-width:1.33417;stroke-dasharray:none"
       id="path117"
       cx="89.184662"
       cy="88.178818"
       r="85.999489" /><g
       fill="none"
       fill-rule="evenodd"
       stroke="#000000"
       stroke-linecap="round"
       stroke-linejoin="round"
       transform="matrix(7.8949907,0,0,7.8949907,110.16525,90.780646)"
       id="g6446"
       style="fill:#ffffff;fill-opacity:1"><path
         d="M 2.3507377,3.5054857 2.5,3.5 v -1 c 0,-0.5522848 0.4477153,-1 1,-1 0.5522847,0 1,0.4477152 1,1 v -1 c 0,-0.55228475 0.4477152,-1 1,-1 0.5522847,0 1,0.44771525 1,1 v 1 c 0,-0.5522848 0.4477152,-1 1,-1 0.5522848,0 1,0.4477152 1,1 v 1 c 0,-0.5522847 0.4477153,-1 1,-1 0.552285,0 1,0.4477153 1,1 v 4 c 0,2.761424 -2.2385762,5 -5,5 H 5 C 2.5147186,12.5 0.5,10.485281 0.5,8 V 5.5 C 0.5,4.4456382 1.3158778,3.5818349 2.3507377,3.5054857 Z"
         id="path6436"
         style="fill:#ffffff;fill-opacity:1" /><path
         d="m 2.5,2.5 v 3"
         id="path6438"
         style="fill:#ffffff;fill-opacity:1" /><path
         d="m 4.5,1.5 v 2"
         id="path6440"
         style="fill:#ffffff;fill-opacity:1" /><path
         d="m 6.5,1.5 v 2"
         id="path6442"
         style="fill:#ffffff;fill-opacity:1" /><path
         d="m 8.5,2.5 v 2"
         id="path6444"
         style="fill:#ffffff;fill-opacity:1" /></g></g></svg>
